<?xml version="1.0" encoding="UTF-8" standalone="no"?>
<svg width="273px" height="427px" viewBox="0 0 273 427" version="1.1" xmlns="http://www.w3.org/2000/svg" xmlns:xlink="http://www.w3.org/1999/xlink">
    <!-- Generator: Sketch 40.3 (33839) - http://www.bohemiancoding.com/sketch -->
    <title>native-application</title>
    <desc>Created with Sketch.</desc>
    <defs>
        <polygon id="path-1" points="0 0.554 185 0.554 185 36.3364258 0 36.3364258 0 0.554"></polygon>
        <polygon id="path-3" points="39.1597 2.4531 8.3446 151.4968 0.5103 149.8771 31.3254 0.8334"></polygon>
        <polygon id="path-5" points="8.3207 0.7363 27.9488 149.8753 20.0172 150.9192 0.3891 1.7802"></polygon>
        <polygon id="path-7" points="206 0.79667 0 0.79667 0 37.3364258 206 37.3364258 206 0.79667"></polygon>
        <polygon id="path-9" points="0.9584 45.6235 0.9584 0.704 12.9584 0.704 12.9584 45.6235"></polygon>
    </defs>
    <g id="Page-1" stroke="none" stroke-width="1" fill="none" fill-rule="evenodd">
        <g id="512" transform="translate(-165.000000, -37.000000)">
            <g id="native-application" transform="translate(165.000000, 37.000000)">
                <path d="M0.4584,371.3747 L0.4584,328.0662 C0.4584,297.5448 25.2008,272.8024 55.7222,272.8024 L217.3706,272.8024 C247.8919,272.8024 272.6344,297.5448 272.6344,328.0662 L272.6344,371.3747 C272.6344,401.8961 247.8919,426.6385 217.3706,426.6385 L55.7222,426.6385 C25.2008,426.6385 0.4584,401.8961 0.4584,371.3747 L0.4584,371.3747 Z" id="Fill-4" fill="#C05E58"></path>
                <path d="M0.4584,313.7282 C0.4584,287.2963 21.8857,265.8691 48.3176,265.8691 L224.7752,265.8691 C251.2071,265.8691 272.6344,287.2963 272.6344,313.7282 L272.6344,371.846 C272.6344,398.2779 251.2071,419.7052 224.7752,419.7052 L48.3176,419.7052 C21.8857,419.7052 0.4584,398.2779 0.4584,371.846 L0.4584,313.7282 Z" id="Fill-6" fill="#F27367"></path>
                <path d="M21.2954,363.2618 L21.2954,323.8651 C21.2954,301.612 39.3351,283.5722 61.5883,283.5722 L211.5045,283.5722 C233.7576,283.5722 251.7974,301.612 251.7974,323.8651 L251.7974,363.2618 C251.7974,385.515 233.7576,403.5547 211.5045,403.5547 L61.5883,403.5547 C39.3351,403.5547 21.2954,385.515 21.2954,363.2618 L21.2954,363.2618 Z" id="Fill-8" fill="#D76860"></path>
                <g id="Group-12" transform="translate(45.000000, 296.000000)" font-size="35" font-family="OpenSans-Light, Open Sans" fill="#F9FAF5" font-weight="300">
                    <text id="GENERAL-" letter-spacing="0.0001">
                        <tspan x="17" y="37.3364258">GENERAL </tspan>
                    </text>
                    <text id="HARDWARE" letter-spacing="0.0002">
                        <tspan x="0" y="84.3364258">HAR</tspan>
                        <tspan x="66.9756977" y="84.3364258" letter-spacing="-0.3498">D</tspan>
                        <tspan x="90.9960148" y="84.3364258" letter-spacing="-1.3998">W</tspan>
                        <tspan x="119.417992" y="84.3364258">ARE</tspan>
                    </text>
                </g>
                <path d="M10.6722,200.1504 L10.6722,184.7717 C10.6722,162.8863 28.4138,145.1446 50.2993,145.1446 L223.8226,145.1446 C245.708,145.1446 263.4496,162.8863 263.4496,184.7717 L263.4496,200.1504 C263.4496,222.0359 245.708,239.7775 223.8226,239.7775 L50.2993,239.7775 C28.4138,239.7775 10.6722,222.0359 10.6722,200.1504 L10.6722,200.1504 Z" id="Fill-21" fill="#73AEAA"></path>
                <path d="M8.3287,196.9445 L8.3287,178.6811 C8.3287,159.728 23.6932,144.3636 42.6462,144.3636 L229.4174,144.3636 C248.3705,144.3636 263.735,159.728 263.735,178.6811 L263.735,196.9445 C263.735,215.8976 248.3705,231.2621 229.4174,231.2621 L42.6462,231.2621 C23.6932,231.2621 8.3287,215.8976 8.3287,196.9445 L8.3287,196.9445 Z" id="Fill-23" fill="#85CBC5"></path>
                <path d="M19.1,191.2549 L19.1,183.8122 C19.1,167.8555 32.0354,154.92 47.9921,154.92 L224.0715,154.92 C240.0282,154.92 252.9637,167.8555 252.9637,183.8122 L252.9637,191.2549 C252.9637,207.2116 240.0282,220.147 224.0715,220.147 L47.9921,220.147 C32.0354,220.147 19.1,207.2116 19.1,191.2549 L19.1,191.2549 Z" id="Fill-25" fill="#7EBFBB"></path>
                <g id="Group-28" transform="translate(42.000000, 174.000000)">
                    <mask id="mask-2" fill="white">
                        <use xlink:href="#path-1"></use>
                    </mask>
                    <g id="Clip-27"></g>
                    <text id="NATIVE-LIBS" mask="url(#mask-2)" font-family="OpenSans-Light, Open Sans" font-size="35" font-weight="300" letter-spacing="0.007" fill="#F9FAF5">
                        <tspan x="0" y="26.3364258">N</tspan>
                        <tspan x="25.2486992" y="26.3364258" letter-spacing="-2.4395">A</tspan>
                        <tspan x="41.3687695" y="26.3364258" letter-spacing="-0.0035">T</tspan>
                        <tspan x="59.7026719" y="26.3364258">I</tspan>
                        <tspan x="68.5210313" y="26.3364258" letter-spacing="0.0035">V</tspan>
                        <tspan x="88.7247266" y="26.3364258" letter-spacing="-0.007">E </tspan>
                        <tspan x="117.114047" y="26.3364258">L</tspan>
                        <tspan x="135.082473" y="26.3364258">IBS</tspan>
                    </text>
                </g>
                <g id="Group-56" transform="translate(22.000000, 222.000000)">
                    <polygon id="Stroke-50" stroke="#FFFFFF" stroke-dasharray="2,2" points="33.9265155 8.00858675 33.8252806 8.498231 5.95612899 143.293278 5.85489404 143.782922"></polygon>
                    <path d="M7.73617705,147.03115 C7.45662443,148.383265 6.13389643,149.252749 4.78178105,148.973196 C3.42966567,148.693644 2.56018193,147.370916 2.83973455,146.0188 C3.11928717,144.666685 4.44201517,143.797201 5.79413055,144.076754 C7.14624593,144.356307 8.01572967,145.679035 7.73617705,147.03115 L7.73617705,147.03115 Z" id="Stroke-52" stroke="#FFFFFF"></path>
                    <mask id="mask-4" fill="white">
                        <use xlink:href="#path-3"></use>
                    </mask>
                    <g id="Clip-55"></g>
                    <polygon id="Fill-54" fill="#FFFFFF" mask="url(#mask-4)" points="36.7631 9.1057 35.0401 2.6225 30.8874 7.8909"></polygon>
                </g>
                <g id="Group-63" transform="translate(223.000000, 219.000000)">
                    <polygon id="Stroke-57" stroke="#FFFFFF" stroke-dasharray="2,2" points="5.20306475 7.7026772 5.268307 8.1984024 22.9979015 142.911825 23.0631437 143.40755"></polygon>
                    <path d="M25.9071307,145.857386 C26.0872922,147.226294 25.1236234,148.482062 23.754716,148.662224 C22.3858085,148.842385 21.1300402,147.878716 20.9498787,146.509809 C20.7697172,145.140901 21.733386,143.885133 23.1022935,143.704972 C24.4712009,143.52481 25.7269692,144.488479 25.9071307,145.857386 L25.9071307,145.857386 Z" id="Stroke-59" stroke="#FFFFFF"></path>
                    <mask id="mask-6" fill="white">
                        <use xlink:href="#path-5"></use>
                    </mask>
                    <g id="Clip-62"></g>
                    <polygon id="Fill-61" fill="#FFFFFF" mask="url(#mask-6)" points="8.2427 7.807 4.4854 2.2497 2.2939 8.5899"></polygon>
                </g>
                <path d="M2.2881,61.4968 L2.2881,33.6374 C2.2881,15.9255 16.6465,1.5671 34.3584,1.5671 L223.2178,1.5671 C240.9298,1.5671 255.2881,15.9255 255.2881,33.6374 L255.2881,61.4968 C255.2881,79.2087 240.9298,93.5671 223.2178,93.5671 L34.3584,93.5671 C16.6465,93.5671 2.2881,79.2087 2.2881,61.4968 L2.2881,61.4968 Z" id="Fill-64" fill="#514F67"></path>
                <path d="M0.4584,55.7806 L0.4584,32.9212 C0.4584,15.2092 14.8167,0.8509 32.5287,0.8509 L223.3881,0.8509 C241.1,0.8509 255.4584,15.2092 255.4584,32.9212 L255.4584,55.7806 C255.4584,73.4925 241.1,87.8509 223.3881,87.8509 L32.5287,87.8509 C14.8167,87.8509 0.4584,73.4925 0.4584,55.7806 L0.4584,55.7806 Z" id="Fill-66" fill="#817DA2"></path>
                <path d="M10.9584,49.7216 L10.9584,38.9802 C10.9584,23.9971 23.1046,11.8509 38.0877,11.8509 L217.8291,11.8509 C232.8122,11.8509 244.9584,23.9971 244.9584,38.9802 L244.9584,49.7216 C244.9584,64.7047 232.8122,76.8509 217.8291,76.8509 L38.0877,76.8509 C23.1046,76.8509 10.9584,64.7047 10.9584,49.7216 L10.9584,49.7216 Z" id="Fill-68" fill="#9283A2"></path>
                <g id="Group-71" transform="translate(25.000000, 28.000000)">
                    <mask id="mask-8" fill="white">
                        <use xlink:href="#path-7"></use>
                    </mask>
                    <g id="Clip-70"></g>
                    <text id="APPLICATION" mask="url(#mask-8)" font-family="OpenSans-Light, Open Sans" font-size="35" font-weight="300" letter-spacing="0.0035" fill="#F9FAF5">
                        <tspan x="0" y="27.3364258">A</tspan>
                        <tspan x="21.006918" y="27.3364258">PP</tspan>
                        <tspan x="61.9541836" y="27.3364258" letter-spacing="0.007">L</tspan>
                        <tspan x="79.9226094" y="27.3364258">I</tspan>
                        <tspan x="88.7409688" y="27.3364258">C</tspan>
                        <tspan x="110.48275" y="27.3364258" letter-spacing="-2.4395">A</tspan>
                        <tspan x="126.60282" y="27.3364258" letter-spacing="-0.0035">T</tspan>
                        <tspan x="144.936723" y="27.3364258">I</tspan>
                        <tspan x="153.755082" y="27.3364258" letter-spacing="0.007">O</tspan>
                        <tspan x="180.507688" y="27.3364258">N</tspan>
                    </text>
                </g>
                <g id="Group-78" transform="translate(121.000000, 96.000000)">
                    <polygon id="Stroke-72" stroke="#FFFFFF" stroke-width="2" stroke-dasharray="4,4" points="6.9584 36.0235 6.9584 35.0235 6.9584 12.18405 6.9584 11.18405"></polygon>
                    <path d="M2.9584,6.904 C2.9584,4.6948608 4.7492608,2.904 6.9584,2.904 C9.1675392,2.904 10.9584,4.6948608 10.9584,6.904 C10.9584,9.1131392 9.1675392,10.904 6.9584,10.904 C4.7492608,10.904 2.9584,9.1131392 2.9584,6.904 L2.9584,6.904 Z" id="Stroke-74" stroke="#FFFFFF" stroke-width="1.25"></path>
                    <mask id="mask-10" fill="white">
                        <use xlink:href="#path-9"></use>
                    </mask>
                    <g id="Clip-77"></g>
                    <polygon id="Fill-76" fill="#FFFFFF" mask="url(#mask-10)" points="2.1584 35.0235 6.9584 44.6235 11.7584 35.0235"></polygon>
                </g>
            </g>
        </g>
    </g>
</svg>