<?xml version="1.0" encoding="UTF-8" standalone="no"?>
<svg width="600px" height="600px" viewBox="0 0 600 600" version="1.1" xmlns="http://www.w3.org/2000/svg" xmlns:xlink="http://www.w3.org/1999/xlink">
    <!-- Generator: Sketch 40.3 (33839) - http://www.bohemiancoding.com/sketch -->
    <title>react-native</title>
    <desc>Created with Sketch.</desc>
    <defs>
        <polygon id="path-1" points="0 0.554 185 0.554 185 36.3364258 0 36.3364258 0 0.554"></polygon>
        <polygon id="path-3" points="0 0.554 185 0.554 185 36.3364258 0 36.3364258 0 0.554"></polygon>
        <polygon id="path-5" points="39.1597 2.4531 8.3446 151.4968 0.5103 149.8771 31.3254 0.8334"></polygon>
        <polygon id="path-7" points="39.1597 2.4531 8.3446 151.4968 0.5103 149.8771 31.3254 0.8334"></polygon>
        <polygon id="path-9" points="8.3207 0.7363 27.9488 149.8753 20.0172 150.9192 0.3891 1.7802"></polygon>
        <polygon id="path-11" points="8.3207 0.7363 27.9488 149.8753 20.0172 150.9192 0.3891 1.7802"></polygon>
        <polygon id="path-13" points="215 0.79667 0 0.79667 0 37.3364258 215 37.3364258 215 0.79667"></polygon>
        <polygon id="path-15" points="215 0.79667 0 0.79667 0 37.3364258 215 37.3364258 215 0.79667"></polygon>
        <polygon id="path-17" points="455.371816 0.79667 0 0.79667 0 37.3364258 455.371816 37.3364258 455.371816 0.79667"></polygon>
        <polygon id="path-19" points="215 0.79667 0 0.79667 0 37.3364258 215 37.3364258 215 0.79667"></polygon>
    </defs>
    <g id="Page-1" stroke="none" stroke-width="1" fill="none" fill-rule="evenodd">
        <g id="react-native">
            <path d="M13,521.5723 L13,478.2638 C13,447.7424 37.7424,423 68.2638,423 L229.9122,423 C260.4335,423 285.176,447.7424 285.176,478.2638 L285.176,521.5723 C285.176,552.0937 260.4335,576.8361 229.9122,576.8361 L68.2638,576.8361 C37.7424,576.8361 13,552.0937 13,521.5723 L13,521.5723 Z" id="Fill-4" fill="#C05E58"></path>
            <path d="M304,524.5723 L304,481.2638 C304,450.7424 328.7424,426 359.2638,426 L520.9122,426 C551.4335,426 576.176,450.7424 576.176,481.2638 L576.176,524.5723 C576.176,555.0937 551.4335,579.8361 520.9122,579.8361 L359.2638,579.8361 C328.7424,579.8361 304,555.0937 304,524.5723 L304,524.5723 Z" id="Fill-4-Copy" fill="#C05E58"></path>
            <path d="M13,463.8591 C13,437.4272 34.4273,416 60.8592,416 L237.3168,416 C263.7487,416 285.176,437.4272 285.176,463.8591 L285.176,521.9769 C285.176,548.4088 263.7487,569.8361 237.3168,569.8361 L60.8592,569.8361 C34.4273,569.8361 13,548.4088 13,521.9769 L13,463.8591 Z" id="Fill-6" fill="#F27367"></path>
            <path d="M304,466.8591 C304,440.4272 325.4273,419 351.8592,419 L528.3168,419 C554.7487,419 576.176,440.4272 576.176,466.8591 L576.176,524.9769 C576.176,551.4088 554.7487,572.8361 528.3168,572.8361 L351.8592,572.8361 C325.4273,572.8361 304,551.4088 304,524.9769 L304,466.8591 Z" id="Fill-6-Copy" fill="#F27367"></path>
            <path d="M34,513.6896 L34,474.2929 C34,452.0398 52.0397,434 74.2929,434 L224.2091,434 C246.4622,434 264.502,452.0398 264.502,474.2929 L264.502,513.6896 C264.502,535.9428 246.4622,553.9825 224.2091,553.9825 L74.2929,553.9825 C52.0397,553.9825 34,535.9428 34,513.6896 L34,513.6896 Z" id="Fill-8" fill="#D76860"></path>
            <path d="M325,516.6896 L325,477.2929 C325,455.0398 343.0397,437 365.2929,437 L515.2091,437 C537.4622,437 555.502,455.0398 555.502,477.2929 L555.502,516.6896 C555.502,538.9428 537.4622,556.9825 515.2091,556.9825 L365.2929,556.9825 C343.0397,556.9825 325,538.9428 325,516.6896 L325,516.6896 Z" id="Fill-8-Copy" fill="#D76860"></path>
            <g id="Group-12" transform="translate(58.000000, 446.000000)" font-size="35" font-family="OpenSans-Light, Open Sans" fill="#F9FAF5" font-weight="300">
                <text id="GENERAL-" letter-spacing="0.0001">
                    <tspan x="17" y="37.3364258">GENERAL </tspan>
                </text>
                <text id="HARDWARE" letter-spacing="0.0002">
                    <tspan x="0" y="84.3364258">HAR</tspan>
                    <tspan x="66.9756977" y="84.3364258" letter-spacing="-0.3498">D</tspan>
                    <tspan x="90.9960148" y="84.3364258" letter-spacing="-1.3998">W</tspan>
                    <tspan x="119.417992" y="84.3364258">ARE</tspan>
                </text>
            </g>
            <g id="Group-12-Copy" transform="translate(349.000000, 449.000000)" font-size="35" font-family="OpenSans-Light, Open Sans" fill="#F9FAF5" font-weight="300">
                <text id="GENERAL-" letter-spacing="0.0001">
                    <tspan x="17" y="37.3364258">GENERAL </tspan>
                </text>
                <text id="HARDWARE" letter-spacing="0.0002">
                    <tspan x="0" y="84.3364258">HAR</tspan>
                    <tspan x="66.9756977" y="84.3364258" letter-spacing="-0.3498">D</tspan>
                    <tspan x="90.9960148" y="84.3364258" letter-spacing="-1.3998">W</tspan>
                    <tspan x="119.417992" y="84.3364258">ARE</tspan>
                </text>
            </g>
            <path d="M21,371.0058 L21,355.6271 C21,333.7417 38.7416,316 60.6271,316 L234.1504,316 C256.0358,316 273.7774,333.7417 273.7774,355.6271 L273.7774,371.0058 C273.7774,392.8913 256.0358,410.6329 234.1504,410.6329 L60.6271,410.6329 C38.7416,410.6329 21,392.8913 21,371.0058 L21,371.0058 Z" id="Fill-21" fill="#73AEAA"></path>
            <path d="M315,374.0058 L315,358.6271 C315,336.7417 332.7416,319 354.6271,319 L528.1504,319 C550.0358,319 567.7774,336.7417 567.7774,358.6271 L567.7774,374.0058 C567.7774,395.8913 550.0358,413.6329 528.1504,413.6329 L354.6271,413.6329 C332.7416,413.6329 315,395.8913 315,374.0058 L315,374.0058 Z" id="Fill-21-Copy" fill="#73AEAA"></path>
            <path d="M18,367.5809 L18,349.3175 C18,330.3644 33.3645,315 52.3175,315 L239.0887,315 C258.0418,315 273.4063,330.3644 273.4063,349.3175 L273.4063,367.5809 C273.4063,386.534 258.0418,401.8985 239.0887,401.8985 L52.3175,401.8985 C33.3645,401.8985 18,386.534 18,367.5809 L18,367.5809 Z" id="Fill-23" fill="#85CBC5"></path>
            <path d="M312,370.5809 L312,352.3175 C312,333.3644 327.3645,318 346.3175,318 L533.0887,318 C552.0418,318 567.4063,333.3644 567.4063,352.3175 L567.4063,370.5809 C567.4063,389.534 552.0418,404.8985 533.0887,404.8985 L346.3175,404.8985 C327.3645,404.8985 312,389.534 312,370.5809 L312,370.5809 Z" id="Fill-23-Copy" fill="#85CBC5"></path>
            <path d="M29,362.3349 L29,354.8922 C29,338.9355 41.9354,326 57.8921,326 L233.9715,326 C249.9282,326 262.8637,338.9355 262.8637,354.8922 L262.8637,362.3349 C262.8637,378.2916 249.9282,391.227 233.9715,391.227 L57.8921,391.227 C41.9354,391.227 29,378.2916 29,362.3349 L29,362.3349 Z" id="Fill-25" fill="#7EBFBB"></path>
            <path d="M323,365.3349 L323,357.8922 C323,341.9355 335.9354,329 351.8921,329 L527.9715,329 C543.9282,329 556.8637,341.9355 556.8637,357.8922 L556.8637,365.3349 C556.8637,381.2916 543.9282,394.227 527.9715,394.227 L351.8921,394.227 C335.9354,394.227 323,381.2916 323,365.3349 L323,365.3349 Z" id="Fill-25-Copy" fill="#7EBFBB"></path>
            <g id="Group-28" transform="translate(52.000000, 340.000000)">
                <mask id="mask-2" fill="white">
                    <use xlink:href="#path-1"></use>
                </mask>
                <g id="Clip-27"></g>
                <text id="ANDROID" mask="url(#mask-2)" font-family="OpenSans-Light, Open Sans" font-size="35" font-weight="300" letter-spacing="0.007" fill="#F9FAF5">
                    <tspan x="17.459875" y="29">ANDROID</tspan>
                </text>
            </g>
            <g id="Group-28-Copy" transform="translate(346.000000, 343.000000)">
                <mask id="mask-4" fill="white">
                    <use xlink:href="#path-3"></use>
                </mask>
                <g id="Clip-27"></g>
                <text id="iOS" mask="url(#mask-4)" font-family="OpenSans-Light, Open Sans" font-size="35" font-weight="300" letter-spacing="0.007" fill="#F9FAF5">
                    <tspan x="66.1242656" y="26">iOS</tspan>
                </text>
            </g>
            <g id="Group-56" transform="translate(32.000000, 372.000000)">
                <polygon id="Stroke-50" stroke="#FFFFFF" stroke-dasharray="2,2" points="33.9265155 8.00858675 33.8252806 8.498231 5.95612899 143.293278 5.85489404 143.782922"></polygon>
                <path d="M7.73617705,147.03115 C7.45662443,148.383265 6.13389643,149.252749 4.78178105,148.973196 C3.42966567,148.693644 2.56018193,147.370916 2.83973455,146.0188 C3.11928717,144.666685 4.44201517,143.797201 5.79413055,144.076754 C7.14624593,144.356307 8.01572967,145.679035 7.73617705,147.03115 L7.73617705,147.03115 Z" id="Stroke-52" stroke="#FFFFFF"></path>
                <mask id="mask-6" fill="white">
                    <use xlink:href="#path-5"></use>
                </mask>
                <g id="Clip-55"></g>
                <polygon id="Fill-54" fill="#FFFFFF" mask="url(#mask-6)" points="36.7631 9.1057 35.0401 2.6225 30.8874 7.8909"></polygon>
            </g>
            <g id="Group-56-Copy" transform="translate(326.000000, 375.000000)">
                <polygon id="Stroke-50" stroke="#FFFFFF" stroke-dasharray="2,2" points="33.9265155 8.00858675 33.8252806 8.498231 5.95612899 143.293278 5.85489404 143.782922"></polygon>
                <path d="M7.73617705,147.03115 C7.45662443,148.383265 6.13389643,149.252749 4.78178105,148.973196 C3.42966567,148.693644 2.56018193,147.370916 2.83973455,146.0188 C3.11928717,144.666685 4.44201517,143.797201 5.79413055,144.076754 C7.14624593,144.356307 8.01572967,145.679035 7.73617705,147.03115 L7.73617705,147.03115 Z" id="Stroke-52" stroke="#FFFFFF"></path>
                <mask id="mask-8" fill="white">
                    <use xlink:href="#path-7"></use>
                </mask>
                <g id="Clip-55"></g>
                <polygon id="Fill-54" fill="#FFFFFF" mask="url(#mask-8)" points="36.7631 9.1057 35.0401 2.6225 30.8874 7.8909"></polygon>
            </g>
            <g id="Group-63" transform="translate(233.000000, 369.000000)">
                <polygon id="Stroke-57" stroke="#FFFFFF" stroke-dasharray="2,2" points="5.20306475 7.7026772 5.268307 8.1984024 22.9979015 142.911825 23.0631437 143.40755"></polygon>
                <path d="M25.9071307,145.857386 C26.0872922,147.226294 25.1236234,148.482062 23.754716,148.662224 C22.3858085,148.842385 21.1300402,147.878716 20.9498787,146.509809 C20.7697172,145.140901 21.733386,143.885133 23.1022935,143.704972 C24.4712009,143.52481 25.7269692,144.488479 25.9071307,145.857386 L25.9071307,145.857386 Z" id="Stroke-59" stroke="#FFFFFF"></path>
                <mask id="mask-10" fill="white">
                    <use xlink:href="#path-9"></use>
                </mask>
                <g id="Clip-62"></g>
                <polygon id="Fill-61" fill="#FFFFFF" mask="url(#mask-10)" points="8.2427 7.807 4.4854 2.2497 2.2939 8.5899"></polygon>
            </g>
            <g id="Group-63-Copy" transform="translate(527.000000, 372.000000)">
                <polygon id="Stroke-57" stroke="#FFFFFF" stroke-dasharray="2,2" points="5.20306475 7.7026772 5.268307 8.1984024 22.9979015 142.911825 23.0631437 143.40755"></polygon>
                <path d="M25.9071307,145.857386 C26.0872922,147.226294 25.1236234,148.482062 23.754716,148.662224 C22.3858085,148.842385 21.1300402,147.878716 20.9498787,146.509809 C20.7697172,145.140901 21.733386,143.885133 23.1022935,143.704972 C24.4712009,143.52481 25.7269692,144.488479 25.9071307,145.857386 L25.9071307,145.857386 Z" id="Stroke-59" stroke="#FFFFFF"></path>
                <mask id="mask-12" fill="white">
                    <use xlink:href="#path-11"></use>
                </mask>
                <g id="Clip-62"></g>
                <polygon id="Fill-61" fill="#FFFFFF" mask="url(#mask-12)" points="8.2427 7.807 4.4854 2.2497 2.2939 8.5899"></polygon>
            </g>
            <path d="M175,72.9297 L175,45.0703 C175,27.3584 189.3584,13 207.0703,13 L395.9297,13 C413.6417,13 428,27.3584 428,45.0703 L428,72.9297 C428,90.6416 413.6417,105 395.9297,105 L207.0703,105 C189.3584,105 175,90.6416 175,72.9297 L175,72.9297 Z" id="Fill-64" fill="#67664F"></path>
            <path d="M301,179.9297 L301,152.0703 C301,134.3584 315.3584,120 333.0703,120 L521.9297,120 C539.6417,120 554,134.3584 554,152.0703 L554,179.9297 C554,197.6416 539.6417,212 521.9297,212 L333.0703,212 C315.3584,212 301,197.6416 301,179.9297 L301,179.9297 Z" id="Fill-64-Copy" fill="#514F67"></path>
            <path d="M14,179.9297 L14,152.0703 C14,134.3584 28.3584,120 46.0703,120 L234.9297,120 C252.6417,120 267,134.3584 267,152.0703 L267,179.9297 C267,197.6416 252.6417,212 234.9297,212 L46.0703,212 C28.3584,212 14,197.6416 14,179.9297 L14,179.9297 Z" id="Fill-64-Copy-2" fill="#514F67"></path>
            <path d="M15.1180084,278.9297 L15.1180084,251.0703 C15.1180084,233.3584 45.5292209,219 83.0431747,219 L483.048979,219 C520.563144,219 550.974145,233.3584 550.974145,251.0703 L550.974145,278.9297 C550.974145,296.6416 520.563144,311 483.048979,311 L83.0431747,311 C45.5292209,311 15.1180084,296.6416 15.1180084,278.9297 L15.1180084,278.9297 Z" id="Fill-64-Copy-3" fill="#28334D"></path>
            <path d="M173,66.9297 L173,44.0703 C173,26.3583 187.3583,12 205.0703,12 L395.9297,12 C413.6416,12 428,26.3583 428,44.0703 L428,66.9297 C428,84.6416 413.6416,99 395.9297,99 L205.0703,99 C187.3583,99 173,84.6416 173,66.9297 L173,66.9297 Z" id="Fill-66" fill="#FFF46A"></path>
            <path d="M300,173.9297 L300,151.0703 C300,133.3583 314.3583,119 332.0703,119 L522.9297,119 C540.6416,119 555,133.3583 555,151.0703 L555,173.9297 C555,191.6416 540.6416,206 522.9297,206 L332.0703,206 C314.3583,206 300,191.6416 300,173.9297 L300,173.9297 Z" id="Fill-66-Copy" fill="#817DA2"></path>
            <path d="M13,173.9297 L13,151.0703 C13,133.3583 27.3583,119 45.0703,119 L235.9297,119 C253.6416,119 268,133.3583 268,151.0703 L268,173.9297 C268,191.6416 253.6416,206 235.9297,206 L45.0703,206 C27.3583,206 13,191.6416 13,173.9297 L13,173.9297 Z" id="Fill-66-Copy-2" fill="#817DA2"></path>
            <path d="M13,272.9297 L13,250.0703 C13,232.3583 43.4110006,218 80.9251662,218 L485.166987,218 C522.680941,218 553.092153,232.3583 553.092153,250.0703 L553.092153,272.9297 C553.092153,290.6416 522.680941,305 485.166987,305 L80.9251662,305 C43.4110006,305 13,290.6416 13,272.9297 L13,272.9297 Z" id="Fill-66-Copy-3" fill="#2A69AD"></path>
            <path d="M184,60.8707 L184,50.1293 C184,35.1462 196.1462,23 211.1293,23 L390.8707,23 C405.8538,23 418,35.1462 418,50.1293 L418,60.8707 C418,75.8538 405.8538,88 390.8707,88 L211.1293,88 C196.1462,88 184,75.8538 184,60.8707 L184,60.8707 Z" id="Fill-68" fill="#A2A283"></path>
            <path d="M310,167.8707 L310,157.1293 C310,142.1462 322.1462,130 337.1293,130 L516.8707,130 C531.8538,130 544,142.1462 544,157.1293 L544,167.8707 C544,182.8538 531.8538,195 516.8707,195 L337.1293,195 C322.1462,195 310,182.8538 310,167.8707 L310,167.8707 Z" id="Fill-68-Copy" fill="#9283A2"></path>
            <path d="M23,167.8707 L23,157.1293 C23,142.1462 35.1462,130 50.1293,130 L229.8707,130 C244.8538,130 257,142.1462 257,157.1293 L257,167.8707 C257,182.8538 244.8538,195 229.8707,195 L50.1293,195 C35.1462,195 23,182.8538 23,167.8707 L23,167.8707 Z" id="Fill-68-Copy-2" fill="#9283A2"></path>
            <path d="M34.1800844,266.8707 L34.1800844,256.1293 C34.1800844,241.1462 59.9058386,229 91.6401709,229 L472.333974,229 C504.068306,229 529.79406,241.1462 529.79406,256.1293 L529.79406,266.8707 C529.79406,281.8538 504.068306,294 472.333974,294 L91.6401709,294 C59.9058386,294 34.1800844,281.8538 34.1800844,266.8707 L34.1800844,266.8707 Z" id="Fill-68-Copy-3" stroke="#4990E2" fill="#2E82C6"></path>
            <g id="Group-71-Copy" transform="translate(325.000000, 144.000000)">
                <mask id="mask-14" fill="white">
                    <use xlink:href="#path-13"></use>
                </mask>
                <g id="Clip-70"></g>
                <text id="JS-ENGINE" mask="url(#mask-14)" font-family="OpenSans-Light, Open Sans" font-size="30" font-weight="300" letter-spacing="0.00300000003" fill="#F9FAF5">
                    <tspan x="38.8951914" y="29">JS ENGINE</tspan>
                </text>
            </g>
            <g id="Group-71-Copy-3" transform="translate(38.000000, 144.000000)">
                <mask id="mask-16" fill="white">
                    <use xlink:href="#path-15"></use>
                </mask>
                <g id="Clip-70"></g>
                <text id="JS-ENGINE" mask="url(#mask-16)" font-family="OpenSans-Light, Open Sans" font-size="30" font-weight="300" letter-spacing="0.00300000003" fill="#F9FAF5">
                    <tspan x="38.8951914" y="29">JS ENGINE</tspan>
                </text>
            </g>
            <g id="Group-71-Copy-4" transform="translate(65.950211, 243.000000)">
                <mask id="mask-18" fill="white">
                    <use xlink:href="#path-17"></use>
                </mask>
                <g id="Clip-70"></g>
                <text id="REACT-NATIVE" mask="url(#mask-18)" font-family="OpenSans-Light, Open Sans" font-size="30" font-weight="300" letter-spacing="0.00300000003" fill="#F9FAF5">
                    <tspan x="133.361267" y="29">REACT NATIVE</tspan>
                </text>
            </g>
            <g id="Group-71-Copy-2" transform="translate(193.000000, 36.000000)">
                <mask id="mask-20" fill="white">
                    <use xlink:href="#path-19"></use>
                </mask>
                <g id="Clip-70"></g>
                <text id="WEB-(JS)-APP" mask="url(#mask-20)" font-family="OpenSans-Light, Open Sans" font-size="30" font-weight="300" letter-spacing="0.00300000003" fill="#F9FAF5">
                    <tspan x="20.6900078" y="31">WEB (JS) APP</tspan>
                </text>
            </g>
        </g>
    </g>
</svg>