<?xml version="1.0" encoding="UTF-8" standalone="no"?>
<svg width="600px" height="500px" viewBox="0 0 600 500" version="1.1" xmlns="http://www.w3.org/2000/svg" xmlns:xlink="http://www.w3.org/1999/xlink">
    <!-- Generator: Sketch 40.3 (33839) - http://www.bohemiancoding.com/sketch -->
    <title>web-application</title>
    <desc>Created with Sketch.</desc>
    <defs>
        <polygon id="path-1" points="0 0.554 185 0.554 185 36.3364258 0 36.3364258 0 0.554"></polygon>
        <polygon id="path-3" points="39.1597 2.4531 8.3446 151.4968 0.5103 149.8771 31.3254 0.8334"></polygon>
        <polygon id="path-5" points="8.3207 0.7363 27.9488 149.8753 20.0172 150.9192 0.3891 1.7802"></polygon>
        <polygon id="path-7" points="215 0.79667 0 0.79667 0 37.3364258 215 37.3364258 215 0.79667"></polygon>
        <polygon id="path-9" points="215 0.79667 0 0.79667 0 37.3364258 215 37.3364258 215 0.79667"></polygon>
    </defs>
    <g id="Page-1" stroke="none" stroke-width="1" fill="none" fill-rule="evenodd">
        <g id="web-application">
            <path d="M165,433.5723 L165,390.2638 C165,359.7424 189.7424,335 220.2638,335 L381.9122,335 C412.4335,335 437.176,359.7424 437.176,390.2638 L437.176,433.5723 C437.176,464.0937 412.4335,488.8361 381.9122,488.8361 L220.2638,488.8361 C189.7424,488.8361 165,464.0937 165,433.5723 L165,433.5723 Z" id="Fill-4" fill="#C05E58"></path>
            <path d="M165,375.8591 C165,349.4272 186.4273,328 212.8592,328 L389.3168,328 C415.7487,328 437.176,349.4272 437.176,375.8591 L437.176,433.9769 C437.176,460.4088 415.7487,481.8361 389.3168,481.8361 L212.8592,481.8361 C186.4273,481.8361 165,460.4088 165,433.9769 L165,375.8591 Z" id="Fill-6" fill="#F27367"></path>
            <path d="M186,425.6896 L186,386.2929 C186,364.0398 204.0397,346 226.2929,346 L376.2091,346 C398.4622,346 416.502,364.0398 416.502,386.2929 L416.502,425.6896 C416.502,447.9428 398.4622,465.9825 376.2091,465.9825 L226.2929,465.9825 C204.0397,465.9825 186,447.9428 186,425.6896 L186,425.6896 Z" id="Fill-8" fill="#D76860"></path>
            <g id="Group-12" transform="translate(210.000000, 358.000000)" font-size="35" font-family="OpenSans-Light, Open Sans" fill="#F9FAF5" font-weight="300">
                <text id="GENERAL-" letter-spacing="0.0001">
                    <tspan x="17" y="37.3364258">GENERAL </tspan>
                </text>
                <text id="HARDWARE" letter-spacing="0.0002">
                    <tspan x="0" y="84.3364258">HAR</tspan>
                    <tspan x="66.9756977" y="84.3364258" letter-spacing="-0.3498">D</tspan>
                    <tspan x="90.9960148" y="84.3364258" letter-spacing="-1.3998">W</tspan>
                    <tspan x="119.417992" y="84.3364258">ARE</tspan>
                </text>
            </g>
            <path d="M176,283.0058 L176,267.6271 C176,245.7417 193.7416,228 215.6271,228 L389.1504,228 C411.0358,228 428.7774,245.7417 428.7774,267.6271 L428.7774,283.0058 C428.7774,304.8913 411.0358,322.6329 389.1504,322.6329 L215.6271,322.6329 C193.7416,322.6329 176,304.8913 176,283.0058 L176,283.0058 Z" id="Fill-21" fill="#73AEAA"></path>
            <path d="M173,279.5809 L173,261.3175 C173,242.3644 188.3645,227 207.3175,227 L394.0887,227 C413.0418,227 428.4063,242.3644 428.4063,261.3175 L428.4063,279.5809 C428.4063,298.534 413.0418,313.8985 394.0887,313.8985 L207.3175,313.8985 C188.3645,313.8985 173,298.534 173,279.5809 L173,279.5809 Z" id="Fill-23" fill="#85CBC5"></path>
            <path d="M184,274.3349 L184,266.8922 C184,250.9355 196.9354,238 212.8921,238 L388.9715,238 C404.9282,238 417.8637,250.9355 417.8637,266.8922 L417.8637,274.3349 C417.8637,290.2916 404.9282,303.227 388.9715,303.227 L212.8921,303.227 C196.9354,303.227 184,290.2916 184,274.3349 L184,274.3349 Z" id="Fill-25" fill="#7EBFBB"></path>
            <g id="Group-28" transform="translate(207.000000, 257.000000)">
                <mask id="mask-2" fill="white">
                    <use xlink:href="#path-1"></use>
                </mask>
                <g id="Clip-27"></g>
                <text id="NATIVE-LIBS" mask="url(#mask-2)" font-family="OpenSans-Light, Open Sans" font-size="35" font-weight="300" letter-spacing="0.007" fill="#F9FAF5">
                    <tspan x="0" y="26.3364258">N</tspan>
                    <tspan x="25.2486992" y="26.3364258" letter-spacing="-2.4395">A</tspan>
                    <tspan x="41.3687695" y="26.3364258" letter-spacing="-0.0035">T</tspan>
                    <tspan x="59.7026719" y="26.3364258">I</tspan>
                    <tspan x="68.5210313" y="26.3364258" letter-spacing="0.0035">V</tspan>
                    <tspan x="88.7247266" y="26.3364258" letter-spacing="-0.007">E </tspan>
                    <tspan x="117.114047" y="26.3364258">L</tspan>
                    <tspan x="135.082473" y="26.3364258">IBS</tspan>
                </text>
            </g>
            <g id="Group-56" transform="translate(187.000000, 284.000000)">
                <polygon id="Stroke-50" stroke="#FFFFFF" stroke-dasharray="2,2" points="33.9265155 8.00858675 33.8252806 8.498231 5.95612899 143.293278 5.85489404 143.782922"></polygon>
                <path d="M7.73617705,147.03115 C7.45662443,148.383265 6.13389643,149.252749 4.78178105,148.973196 C3.42966567,148.693644 2.56018193,147.370916 2.83973455,146.0188 C3.11928717,144.666685 4.44201517,143.797201 5.79413055,144.076754 C7.14624593,144.356307 8.01572967,145.679035 7.73617705,147.03115 L7.73617705,147.03115 Z" id="Stroke-52" stroke="#FFFFFF"></path>
                <mask id="mask-4" fill="white">
                    <use xlink:href="#path-3"></use>
                </mask>
                <g id="Clip-55"></g>
                <polygon id="Fill-54" fill="#FFFFFF" mask="url(#mask-4)" points="36.7631 9.1057 35.0401 2.6225 30.8874 7.8909"></polygon>
            </g>
            <g id="Group-63" transform="translate(388.000000, 281.000000)">
                <polygon id="Stroke-57" stroke="#FFFFFF" stroke-dasharray="2,2" points="5.20306475 7.7026772 5.268307 8.1984024 22.9979015 142.911825 23.0631437 143.40755"></polygon>
                <path d="M25.9071307,145.857386 C26.0872922,147.226294 25.1236234,148.482062 23.754716,148.662224 C22.3858085,148.842385 21.1300402,147.878716 20.9498787,146.509809 C20.7697172,145.140901 21.733386,143.885133 23.1022935,143.704972 C24.4712009,143.52481 25.7269692,144.488479 25.9071307,145.857386 L25.9071307,145.857386 Z" id="Stroke-59" stroke="#FFFFFF"></path>
                <mask id="mask-6" fill="white">
                    <use xlink:href="#path-5"></use>
                </mask>
                <g id="Clip-62"></g>
                <polygon id="Fill-61" fill="#FFFFFF" mask="url(#mask-6)" points="8.2427 7.807 4.4854 2.2497 2.2939 8.5899"></polygon>
            </g>
            <path d="M175,72.9297 L175,45.0703 C175,27.3584 189.3584,13 207.0703,13 L395.9297,13 C413.6417,13 428,27.3584 428,45.0703 L428,72.9297 C428,90.6416 413.6417,105 395.9297,105 L207.0703,105 C189.3584,105 175,90.6416 175,72.9297 L175,72.9297 Z" id="Fill-64" fill="#67664F"></path>
            <path d="M174,180.9297 L174,153.0703 C174,135.3584 188.3584,121 206.0703,121 L394.9297,121 C412.6417,121 427,135.3584 427,153.0703 L427,180.9297 C427,198.6416 412.6417,213 394.9297,213 L206.0703,213 C188.3584,213 174,198.6416 174,180.9297 L174,180.9297 Z" id="Fill-64-Copy" fill="#514F67"></path>
            <path d="M173,66.9297 L173,44.0703 C173,26.3583 187.3583,12 205.0703,12 L395.9297,12 C413.6416,12 428,26.3583 428,44.0703 L428,66.9297 C428,84.6416 413.6416,99 395.9297,99 L205.0703,99 C187.3583,99 173,84.6416 173,66.9297 L173,66.9297 Z" id="Fill-66" fill="#FFF46A"></path>
            <path d="M173,174.9297 L173,152.0703 C173,134.3583 187.3583,120 205.0703,120 L395.9297,120 C413.6416,120 428,134.3583 428,152.0703 L428,174.9297 C428,192.6416 413.6416,207 395.9297,207 L205.0703,207 C187.3583,207 173,192.6416 173,174.9297 L173,174.9297 Z" id="Fill-66-Copy" fill="#817DA2"></path>
            <path d="M184,60.8707 L184,50.1293 C184,35.1462 196.1462,23 211.1293,23 L390.8707,23 C405.8538,23 418,35.1462 418,50.1293 L418,60.8707 C418,75.8538 405.8538,88 390.8707,88 L211.1293,88 C196.1462,88 184,75.8538 184,60.8707 L184,60.8707 Z" id="Fill-68" fill="#A2A283"></path>
            <path d="M183,168.8707 L183,158.1293 C183,143.1462 195.1462,131 210.1293,131 L389.8707,131 C404.8538,131 417,143.1462 417,158.1293 L417,168.8707 C417,183.8538 404.8538,196 389.8707,196 L210.1293,196 C195.1462,196 183,183.8538 183,168.8707 L183,168.8707 Z" id="Fill-68-Copy" fill="#9283A2"></path>
            <g id="Group-71-Copy" transform="translate(198.000000, 145.000000)">
                <mask id="mask-8" fill="white">
                    <use xlink:href="#path-7"></use>
                </mask>
                <g id="Clip-70"></g>
                <text id="WEB-BROWSER" mask="url(#mask-8)" font-family="OpenSans-Light, Open Sans" font-size="30" font-weight="300" letter-spacing="0.00300000003" fill="#F9FAF5">
                    <tspan x="4.14609766" y="29">WEB BROWSER</tspan>
                </text>
            </g>
            <g id="Group-71-Copy-2" transform="translate(193.000000, 36.000000)">
                <mask id="mask-10" fill="white">
                    <use xlink:href="#path-9"></use>
                </mask>
                <g id="Clip-70"></g>
                <text id="WEB-APP" mask="url(#mask-10)" font-family="OpenSans-Light, Open Sans" font-size="30" font-weight="300" letter-spacing="0.00300000003" fill="#F9FAF5">
                    <tspan x="45.9807109" y="31">WEB APP</tspan>
                </text>
            </g>
        </g>
    </g>
</svg>